<svg width="76" height="60" viewBox="0 0 76 60" fill="none" xmlns="http://www.w3.org/2000/svg">
<path d="M71.1744 0.444427H4.82547C2.16064 0.444427 0 2.60494 0 5.26976V54.7302C0 57.3949 2.16064 59.5554 4.82547 59.5554H71.1744C73.8394 59.5554 76 57.3949 76 54.7301V5.26976C76 2.60494 73.8395 0.444427 71.1744 0.444427ZM71.1744 5.26976V40.3636L61.6647 31.7177C60.2354 30.4185 58.0374 30.4704 56.6718 31.8372L47.0473 41.4601L28.0706 18.7929C26.6361 17.0798 24.0087 17.063 22.5527 18.7555L4.82547 39.3576V5.26976H71.1744ZM50.6667 17.9364C50.6667 14.2715 53.6365 11.3015 57.3014 11.3015C60.9664 11.3015 63.9363 14.2715 63.9363 17.9364C63.9363 21.6013 60.9666 24.5713 57.3014 24.5713C53.6366 24.5714 50.6667 21.6013 50.6667 17.9364Z" fill="#C4C4C4" fill-opacity="0.8"/>
</svg>
