<svg width="15" height="20" viewBox="0 0 15 20" fill="none" xmlns="http://www.w3.org/2000/svg">
<path d="M7.50098 0.000976562C5.51258 0.00332234 3.60629 0.794251 2.20027 2.20026C0.794259 3.60628 0.00333031 5.51257 0.000984542 7.50097C-0.00139697 9.12589 0.52938 10.7067 1.51189 12.001C1.51189 12.001 1.71644 12.2703 1.74985 12.3091L7.50098 19.0919L13.2548 12.3057C13.2848 12.2696 13.4901 12.001 13.4901 12.001L13.4907 11.9989C14.4728 10.7052 15.0033 9.12515 15.001 7.50097C14.9986 5.51257 14.2077 3.60628 12.8017 2.20026C11.3957 0.794251 9.48938 0.00332234 7.50098 0.000976562ZM8.18279 10.9101H6.81916V9.54642H8.18279V10.9101ZM8.18279 8.18279H6.81916V6.81915H8.18279V8.18279ZM10.9101 10.9101H9.54643V5.45552H5.45552V10.9101H4.09189V5.45552C4.09225 5.09397 4.23603 4.74733 4.49169 4.49168C4.74734 4.23603 5.09398 4.09224 5.45552 4.09188H9.54643C9.90798 4.09224 10.2546 4.23603 10.5103 4.49168C10.7659 4.74733 10.9097 5.09397 10.9101 5.45552V10.9101Z" fill="#C4C4C4"/>
</svg>
