<svg width="19" height="22" viewBox="0 0 19 22" fill="none" xmlns="http://www.w3.org/2000/svg">
<rect x="0.5" y="6.49951" width="13" height="15" rx="0.5" stroke="#C4C4C4"/>
<path d="M2 10.9995H9V11.9995H2V10.9995Z" fill="#C4C4C4"/>
<path d="M2 13.9995H10V14.9995H2V13.9995Z" fill="#C4C4C4"/>
<path d="M2 16.9995H11V17.9995H2V16.9995Z" fill="#C4C4C4"/>
<path d="M2 5.99951C2 5.44723 2.44772 4.99951 3 4.99951H11C11.5523 4.99951 12 5.44723 12 5.99951V7.99951H2V5.99951Z" fill="#C4C4C4"/>
<path d="M5 3.99951C5 2.89494 5.89543 1.99951 7 1.99951C8.10457 1.99951 9 2.89494 9 3.99951V4.99951H5V3.99951Z" fill="#C4C4C4"/>
<ellipse cx="6.93333" cy="3.93285" rx="0.933333" ry="0.933333" fill="white"/>
<mask id="path-8-outside-1_32_10453" maskUnits="userSpaceOnUse" x="8" y="-0.000488281" width="11" height="12" fill="black">
<rect fill="white" x="8" y="-0.000488281" width="11" height="12"/>
<path d="M17.8887 4.81929L16.8827 4.519C16.8131 4.27615 16.7175 4.04156 16.5974 3.81931L17.0899 2.89741C17.1084 2.86261 17.1152 2.82278 17.1092 2.78384C17.1033 2.74489 17.0849 2.70889 17.0569 2.6812L16.3392 1.9605C16.3115 1.93247 16.2755 1.91412 16.2365 1.90817C16.1976 1.90222 16.1578 1.90899 16.123 1.92746L15.2071 2.41694C14.9826 2.29102 14.745 2.19031 14.4984 2.11665L14.1981 1.12268C14.1854 1.08605 14.1614 1.05439 14.1295 1.03227C14.0977 1.01014 14.0597 0.998689 14.0209 0.999558H13.0059C12.9669 0.999739 12.929 1.01236 12.8977 1.03558C12.8663 1.05881 12.8433 1.09142 12.8317 1.12868L12.5315 2.11965C12.2828 2.19292 12.0431 2.29364 11.8168 2.41995L10.9159 1.93347C10.8811 1.91499 10.8412 1.90822 10.8023 1.91418C10.7633 1.92013 10.7274 1.93848 10.6997 1.9665L9.96995 2.6782C9.94192 2.70589 9.92357 2.74188 9.91762 2.78083C9.91167 2.81978 9.91844 2.85961 9.93692 2.89441L10.4234 3.79529C10.2973 4.02069 10.1966 4.25938 10.1231 4.50699L9.12913 4.80728C9.09187 4.81879 9.05925 4.84188 9.03603 4.87321C9.0128 4.90453 9.00018 4.94245 9 4.98145V5.99644C9.00018 6.03544 9.0128 6.07336 9.03603 6.10468C9.05925 6.13601 9.09187 6.1591 9.12913 6.17061L10.1291 6.4709C10.2034 6.71439 10.3041 6.94901 10.4294 7.17059L9.93692 8.11351C9.91844 8.14831 9.91167 8.18814 9.91762 8.22709C9.92357 8.26604 9.94192 8.30203 9.96995 8.32972L10.6876 9.04742C10.7153 9.07545 10.7513 9.0938 10.7903 9.09975C10.8292 9.1057 10.8691 9.09893 10.9039 9.08045L11.8318 8.58497C12.0513 8.70341 12.2828 8.79804 12.5224 8.86725L12.8227 9.87923C12.8342 9.91649 12.8573 9.94911 12.8887 9.97233C12.92 9.99556 12.9579 10.0082 12.9969 10.0084H14.0119C14.0509 10.0082 14.0888 9.99556 14.1201 9.97233C14.1515 9.94911 14.1746 9.91649 14.1861 9.87923L14.4864 8.86424C14.7239 8.79468 14.9535 8.70006 15.171 8.58197L16.1049 9.08045C16.1397 9.09893 16.1796 9.1057 16.2185 9.09975C16.2575 9.0938 16.2935 9.07545 16.3212 9.04742L17.0389 8.32972C17.0669 8.30203 17.0852 8.26604 17.0912 8.22709C17.0971 8.18814 17.0904 8.14831 17.0719 8.11351L16.5734 7.1826C16.6927 6.9642 16.7884 6.73366 16.8587 6.49493L17.8707 6.19463C17.9079 6.18313 17.9405 6.16003 17.9638 6.1287C17.987 6.09738 17.9996 6.05946 17.9998 6.02046V4.99646C18.0016 4.95912 17.9919 4.92213 17.972 4.89046C17.9521 4.85879 17.9231 4.83396 17.8887 4.81929ZM13.5134 7.15557C13.1868 7.15557 12.8674 7.05871 12.5958 6.87723C12.3242 6.69574 12.1125 6.4378 11.9875 6.136C11.8625 5.83421 11.8298 5.50213 11.8935 5.18175C11.9573 4.86136 12.1146 4.56707 12.3455 4.33609C12.5765 4.10511 12.8708 3.94781 13.1912 3.88408C13.5116 3.82035 13.8437 3.85306 14.1455 3.97807C14.4472 4.10307 14.7052 4.31477 14.8867 4.58637C15.0682 4.85798 15.165 5.1773 15.165 5.50396C15.165 5.94199 14.991 6.36209 14.6813 6.67183C14.3715 6.98156 13.9514 7.15557 13.5134 7.15557Z"/>
</mask>
<path d="M17.8887 4.81929L16.8827 4.519C16.8131 4.27615 16.7175 4.04156 16.5974 3.81931L17.0899 2.89741C17.1084 2.86261 17.1152 2.82278 17.1092 2.78384C17.1033 2.74489 17.0849 2.70889 17.0569 2.6812L16.3392 1.9605C16.3115 1.93247 16.2755 1.91412 16.2365 1.90817C16.1976 1.90222 16.1578 1.90899 16.123 1.92746L15.2071 2.41694C14.9826 2.29102 14.745 2.19031 14.4984 2.11665L14.1981 1.12268C14.1854 1.08605 14.1614 1.05439 14.1295 1.03227C14.0977 1.01014 14.0597 0.998689 14.0209 0.999558H13.0059C12.9669 0.999739 12.929 1.01236 12.8977 1.03558C12.8663 1.05881 12.8433 1.09142 12.8317 1.12868L12.5315 2.11965C12.2828 2.19292 12.0431 2.29364 11.8168 2.41995L10.9159 1.93347C10.8811 1.91499 10.8412 1.90822 10.8023 1.91418C10.7633 1.92013 10.7274 1.93848 10.6997 1.9665L9.96995 2.6782C9.94192 2.70589 9.92357 2.74188 9.91762 2.78083C9.91167 2.81978 9.91844 2.85961 9.93692 2.89441L10.4234 3.79529C10.2973 4.02069 10.1966 4.25938 10.1231 4.50699L9.12913 4.80728C9.09187 4.81879 9.05925 4.84188 9.03603 4.87321C9.0128 4.90453 9.00018 4.94245 9 4.98145V5.99644C9.00018 6.03544 9.0128 6.07336 9.03603 6.10468C9.05925 6.13601 9.09187 6.1591 9.12913 6.17061L10.1291 6.4709C10.2034 6.71439 10.3041 6.94901 10.4294 7.17059L9.93692 8.11351C9.91844 8.14831 9.91167 8.18814 9.91762 8.22709C9.92357 8.26604 9.94192 8.30203 9.96995 8.32972L10.6876 9.04742C10.7153 9.07545 10.7513 9.0938 10.7903 9.09975C10.8292 9.1057 10.8691 9.09893 10.9039 9.08045L11.8318 8.58497C12.0513 8.70341 12.2828 8.79804 12.5224 8.86725L12.8227 9.87923C12.8342 9.91649 12.8573 9.94911 12.8887 9.97233C12.92 9.99556 12.9579 10.0082 12.9969 10.0084H14.0119C14.0509 10.0082 14.0888 9.99556 14.1201 9.97233C14.1515 9.94911 14.1746 9.91649 14.1861 9.87923L14.4864 8.86424C14.7239 8.79468 14.9535 8.70006 15.171 8.58197L16.1049 9.08045C16.1397 9.09893 16.1796 9.1057 16.2185 9.09975C16.2575 9.0938 16.2935 9.07545 16.3212 9.04742L17.0389 8.32972C17.0669 8.30203 17.0852 8.26604 17.0912 8.22709C17.0971 8.18814 17.0904 8.14831 17.0719 8.11351L16.5734 7.1826C16.6927 6.9642 16.7884 6.73366 16.8587 6.49493L17.8707 6.19463C17.9079 6.18313 17.9405 6.16003 17.9638 6.1287C17.987 6.09738 17.9996 6.05946 17.9998 6.02046V4.99646C18.0016 4.95912 17.9919 4.92213 17.972 4.89046C17.9521 4.85879 17.9231 4.83396 17.8887 4.81929ZM13.5134 7.15557C13.1868 7.15557 12.8674 7.05871 12.5958 6.87723C12.3242 6.69574 12.1125 6.4378 11.9875 6.136C11.8625 5.83421 11.8298 5.50213 11.8935 5.18175C11.9573 4.86136 12.1146 4.56707 12.3455 4.33609C12.5765 4.10511 12.8708 3.94781 13.1912 3.88408C13.5116 3.82035 13.8437 3.85306 14.1455 3.97807C14.4472 4.10307 14.7052 4.31477 14.8867 4.58637C15.0682 4.85798 15.165 5.1773 15.165 5.50396C15.165 5.94199 14.991 6.36209 14.6813 6.67183C14.3715 6.98156 13.9514 7.15557 13.5134 7.15557Z" fill="#C4C4C4"/>
<path d="M16.8827 4.519L15.9214 4.79434L16.0721 5.32063L16.5967 5.47722L16.8827 4.519ZM16.5974 3.81931L15.7154 3.34813L15.4623 3.82199L15.7176 4.29465L16.5974 3.81931ZM17.0899 2.89741L17.9719 3.3686L17.9731 3.36642L17.0899 2.89741ZM17.0569 2.6812L16.3483 3.38685L16.354 3.39252L17.0569 2.6812ZM16.3392 1.9605L15.6278 2.66337L15.6306 2.66613L16.3392 1.9605ZM16.123 1.92746L15.654 1.04427L15.6516 1.04551L16.123 1.92746ZM15.2071 2.41694L14.7177 3.28905L15.1954 3.55704L15.6784 3.2989L15.2071 2.41694ZM14.4984 2.11665L13.5411 2.40585L13.6967 2.92084L14.2122 3.07481L14.4984 2.11665ZM14.1981 1.12268L15.1553 0.833473L15.1495 0.814141L15.1429 0.79506L14.1981 1.12268ZM14.0209 0.999558V1.99956H14.0321L14.0433 1.99931L14.0209 0.999558ZM13.0059 0.999558V-0.000453115L13.0013 -0.000431478L13.0059 0.999558ZM12.8317 1.12868L11.8763 0.833609L11.8747 0.838677L12.8317 1.12868ZM12.5315 2.11965L12.8141 3.07888L13.3319 2.92629L13.4885 2.40966L12.5315 2.11965ZM11.8168 2.41995L11.3416 3.29985L11.8247 3.5607L12.304 3.29318L11.8168 2.41995ZM10.9159 1.93347L11.391 1.05354L11.3849 1.05028L10.9159 1.93347ZM10.6997 1.9665L11.3979 2.68239L11.4045 2.67594L11.411 2.66937L10.6997 1.9665ZM9.96995 2.6782L9.27172 1.96229L9.26708 1.96688L9.96995 2.6782ZM9.93692 2.89441L9.0537 3.36343L9.05701 3.36956L9.93692 2.89441ZM10.4234 3.79529L11.2961 4.28355L11.5645 3.80383L11.3033 3.32014L10.4234 3.79529ZM10.1231 4.50699L10.4123 5.46425L10.9284 5.30833L11.0818 4.79146L10.1231 4.50699ZM9.12913 4.80728L8.83992 3.84999L8.83406 3.8518L9.12913 4.80728ZM9 4.98145L8 4.97679V4.98145H9ZM9 5.99644H7.99999L8.00001 6.0011L9 5.99644ZM9.12913 6.17061L8.83405 7.12611L8.84151 7.12836L9.12913 6.17061ZM10.1291 6.4709L11.0856 6.17912L10.9294 5.66712L10.4167 5.51316L10.1291 6.4709ZM10.4294 7.17059L11.3158 7.63354L11.5675 7.15158L11.2998 6.67829L10.4294 7.17059ZM9.93692 8.11351L10.8201 8.58253L10.8233 8.57646L9.93692 8.11351ZM9.96995 8.32972L10.6771 7.6226L10.6728 7.6184L9.96995 8.32972ZM10.6876 9.04742L11.399 8.34454L11.3948 8.34031L10.6876 9.04742ZM10.9039 9.08045L11.3729 9.96365L11.3749 9.96257L10.9039 9.08045ZM11.8318 8.58497L12.3066 7.70492L11.8342 7.45001L11.3607 7.70285L11.8318 8.58497ZM12.5224 8.86725L13.4811 8.58277L13.3255 8.05829L12.7999 7.90651L12.5224 8.86725ZM12.8227 9.87923L11.864 10.1637L11.8673 10.1743L12.8227 9.87923ZM12.9969 10.0084L12.9923 11.0084H12.9969V10.0084ZM14.0119 10.0084V11.0084L14.0166 11.0084L14.0119 10.0084ZM14.1861 9.87923L15.1416 10.1743L15.145 10.1629L14.1861 9.87923ZM14.4864 8.86424L14.2054 7.90453L13.6821 8.05773L13.5274 8.58054L14.4864 8.86424ZM15.171 8.58197L15.6419 7.69977L15.1671 7.44632L14.694 7.70308L15.171 8.58197ZM16.1049 9.08045L15.6341 9.96265L15.6359 9.96365L16.1049 9.08045ZM16.3212 9.04742L15.614 8.3403L15.6098 8.34455L16.3212 9.04742ZM17.0389 8.32972L16.336 7.61839L16.3317 7.62261L17.0389 8.32972ZM17.0719 8.11351L17.9551 7.6445L17.9535 7.64145L17.0719 8.11351ZM16.5734 7.1826L15.6958 6.70315L15.4365 7.17782L15.6918 7.65466L16.5734 7.1826ZM16.8587 6.49493L16.5742 5.53624L16.053 5.6909L15.8994 6.21238L16.8587 6.49493ZM17.8707 6.19463L18.1552 7.15338L18.1657 7.15011L17.8707 6.19463ZM17.9998 6.02046L18.9998 6.02512V6.02046H17.9998ZM17.9998 4.99646L17.0009 4.94908L16.9998 4.97276V4.99646H17.9998ZM18.1747 3.86107L17.1687 3.56078L16.5967 5.47722L17.6027 5.77751L18.1747 3.86107ZM17.844 4.24366C17.7546 3.9314 17.6316 3.62974 17.4772 3.34397L15.7176 4.29465C15.8034 4.45337 15.8717 4.62091 15.9214 4.79434L17.844 4.24366ZM17.4795 4.2905L17.9719 3.3686L16.2079 2.42623L15.7154 3.34813L17.4795 4.2905ZM17.9731 3.36642C18.0925 3.14165 18.1362 2.88439 18.0977 2.63281L16.1207 2.93486C16.0941 2.76118 16.1243 2.58358 16.2067 2.42841L17.9731 3.36642ZM18.0977 2.63281C18.0593 2.38123 17.9408 2.14875 17.7597 1.96988L16.354 3.39252C16.229 3.26904 16.1472 3.10854 16.1207 2.93486L18.0977 2.63281ZM17.7655 1.97557L17.0478 1.25487L15.6306 2.66613L16.3483 3.38683L17.7655 1.97557ZM17.0505 1.25763C16.8716 1.0766 16.6391 0.958075 16.3876 0.919639L16.0855 2.8967C15.9118 2.87016 15.7513 2.78834 15.6279 2.66336L17.0505 1.25763ZM16.3876 0.919639C16.136 0.881204 15.8787 0.924911 15.654 1.04427L16.592 2.81066C16.4368 2.89306 16.2592 2.92323 16.0855 2.8967L16.3876 0.919639ZM15.6516 1.04551L14.7357 1.53499L15.6784 3.2989L16.5943 2.80942L15.6516 1.04551ZM15.6964 1.54484C15.4076 1.38282 15.1018 1.25325 14.7846 1.15849L14.2122 3.07481C14.3881 3.12736 14.5576 3.19921 14.7177 3.28905L15.6964 1.54484ZM15.4556 1.82744L15.1553 0.833473L13.2408 1.41188L13.5411 2.40585L15.4556 1.82744ZM15.1429 0.79506C15.0608 0.55845 14.9058 0.353981 14.7002 0.211077L13.5589 1.85346C13.4169 1.7548 13.3099 1.61364 13.2533 1.4503L15.1429 0.79506ZM14.7002 0.211077C14.4946 0.0681718 14.2489 -0.00580156 13.9985 -0.000191331L14.0433 1.99931C13.8705 2.00318 13.7009 1.95211 13.5589 1.85346L14.7002 0.211077ZM14.0209 -0.000442266H13.0059V1.99956H14.0209V-0.000442266ZM13.0013 -0.000431478C12.7494 0.000741184 12.5045 0.0822642 12.3021 0.232273L13.4932 1.8389C13.3535 1.94246 13.1845 1.99874 13.0106 1.99955L13.0013 -0.000431478ZM12.3021 0.232273C12.0998 0.382282 11.9506 0.592948 11.8763 0.833613L13.7872 1.42376C13.7359 1.5899 13.6329 1.73534 13.4932 1.8389L12.3021 0.232273ZM11.8747 0.838677L11.5744 1.82964L13.4885 2.40966L13.7888 1.41869L11.8747 0.838677ZM12.2488 1.16043C11.929 1.25467 11.6206 1.38423 11.3295 1.54671L12.304 3.29318C12.4656 3.20304 12.6367 3.13116 12.8141 3.07888L12.2488 1.16043ZM12.2919 1.54004L11.391 1.05356L10.4407 2.81338L11.3416 3.29985L12.2919 1.54004ZM11.3849 1.05028C11.1601 0.930917 10.9028 0.88721 10.6513 0.925645L10.9533 2.9027C10.7796 2.92924 10.602 2.89907 10.4469 2.81667L11.3849 1.05028ZM10.6513 0.925645C10.3997 0.96408 10.1672 1.08261 9.98834 1.26364L11.411 2.66937C11.2875 2.79434 11.127 2.87617 10.9533 2.9027L10.6513 0.925645ZM10.0014 1.25061L9.27173 1.96231L10.6682 3.39409L11.3979 2.68239L10.0014 1.25061ZM9.26708 1.96688C9.08605 2.14575 8.96753 2.37823 8.92909 2.62981L10.9062 2.93186C10.8796 3.10554 10.7978 3.26603 10.6728 3.38952L9.26708 1.96688ZM8.92909 2.62981C8.89065 2.88138 8.93436 3.13865 9.05372 3.36342L10.8201 2.4254C10.9025 2.58057 10.9327 2.75818 10.9062 2.93186L8.92909 2.62981ZM9.05701 3.36956L9.54349 4.27044L11.3033 3.32014L10.8168 2.41926L9.05701 3.36956ZM9.55069 3.30703C9.38848 3.59697 9.25893 3.90401 9.16441 4.22251L11.0818 4.79146C11.1342 4.61475 11.2061 4.44441 11.2961 4.28355L9.55069 3.30703ZM9.83389 3.54972L8.83992 3.85001L9.41833 5.76455L10.4123 5.46425L9.83389 3.54972ZM8.83406 3.8518C8.59339 3.92613 8.38272 4.07531 8.23272 4.27765L9.83934 5.46877C9.73578 5.60845 9.59034 5.71144 9.4242 5.76275L8.83406 3.8518ZM8.23272 4.27765C8.08271 4.47999 8.00118 4.72492 8.00001 4.97679L9.99999 4.9861C9.99918 5.15999 9.9429 5.32908 9.83934 5.46877L8.23272 4.27765ZM8 4.98145V5.99644H10V4.98145H8ZM8.00001 6.0011C8.00118 6.25297 8.08271 6.4979 8.23272 6.70024L9.83934 5.50912C9.9429 5.64881 9.99918 5.8179 9.99999 5.99178L8.00001 6.0011ZM8.23272 6.70024C8.38272 6.90258 8.59339 7.05176 8.83406 7.12609L9.4242 5.21514C9.59034 5.26644 9.73578 5.36944 9.83934 5.50912L8.23272 6.70024ZM8.84151 7.12836L9.84149 7.42865L10.4167 5.51316L9.41674 5.21286L8.84151 7.12836ZM9.17262 6.76269C9.26818 7.07595 9.39774 7.37781 9.55897 7.66289L11.2998 6.67829C11.2104 6.52021 11.1386 6.35283 11.0856 6.17912L9.17262 6.76269ZM9.54301 6.70764L9.05053 7.65056L10.8233 8.57646L11.3158 7.63354L9.54301 6.70764ZM9.05372 7.6445C8.93436 7.86927 8.89065 8.12653 8.92909 8.37811L10.9062 8.07606C10.9327 8.24974 10.9025 8.42735 10.8201 8.58252L9.05372 7.6445ZM8.92909 8.37811C8.96753 8.62969 9.08605 8.86217 9.26708 9.04104L10.6728 7.6184C10.7978 7.74189 10.8796 7.90238 10.9062 8.07606L8.92909 8.37811ZM9.26284 9.03683L9.98054 9.75453L11.3948 8.34031L10.6771 7.62261L9.26284 9.03683ZM9.97633 9.75029C10.1552 9.93131 10.3877 10.0498 10.6393 10.0883L10.9413 8.11122C11.115 8.13775 11.2755 8.21958 11.399 8.34455L9.97633 9.75029ZM10.6393 10.0883C10.8908 10.1267 11.1481 10.083 11.3729 9.96365L10.4349 8.19726C10.59 8.11486 10.7676 8.08469 10.9413 8.11122L10.6393 10.0883ZM11.3749 9.96257L12.3028 9.46709L11.3607 7.70285L10.4328 8.19834L11.3749 9.96257ZM11.3569 9.46502C11.6391 9.61732 11.9369 9.739 12.245 9.82799L12.7999 7.90651C12.6288 7.85708 12.4634 7.7895 12.3066 7.70492L11.3569 9.46502ZM11.5638 9.15172L11.8641 10.1637L13.7814 9.59476L13.4811 8.58277L11.5638 9.15172ZM11.8673 10.1743C11.9416 10.415 12.0908 10.6256 12.2931 10.7756L13.4842 9.16902C13.6239 9.27258 13.7269 9.41802 13.7782 9.58416L11.8673 10.1743ZM12.2931 10.7756C12.4954 10.9257 12.7404 11.0072 12.9923 11.0084L13.0016 9.00837C13.1754 9.00918 13.3445 9.06546 13.4842 9.16902L12.2931 10.7756ZM12.9969 11.0084H14.0119V9.00836H12.9969V11.0084ZM14.0166 11.0084C14.2684 11.0072 14.5134 10.9257 14.7157 10.7756L13.5246 9.16902C13.6643 9.06546 13.8334 9.00918 14.0072 9.00837L14.0166 11.0084ZM14.7157 10.7756C14.918 10.6256 15.0672 10.415 15.1415 10.1743L13.2306 9.58416C13.2819 9.41802 13.3849 9.27258 13.5246 9.16902L14.7157 10.7756ZM15.145 10.1629L15.4453 9.14795L13.5274 8.58054L13.2272 9.59553L15.145 10.1629ZM14.7673 9.82395C15.073 9.73448 15.3682 9.61276 15.6481 9.46085L14.694 7.70308C14.5387 7.78736 14.3749 7.85489 14.2054 7.90453L14.7673 9.82395ZM14.7001 9.46416L15.6341 9.96265L16.5758 8.19826L15.6419 7.69977L14.7001 9.46416ZM15.6359 9.96365C15.8607 10.083 16.118 10.1267 16.3695 10.0883L16.0675 8.11122C16.2412 8.08469 16.4188 8.11486 16.5739 8.19726L15.6359 9.96365ZM16.3695 10.0883C16.6211 10.0498 16.8536 9.93131 17.0325 9.75029L15.6098 8.34455C15.7333 8.21958 15.8938 8.13775 16.0675 8.11122L16.3695 10.0883ZM17.0283 9.75453L17.746 9.03683L16.3317 7.62261L15.614 8.34031L17.0283 9.75453ZM17.7417 9.04104C17.9227 8.86217 18.0413 8.62969 18.0797 8.37811L16.1027 8.07606C16.1292 7.90238 16.211 7.74188 16.336 7.6184L17.7417 9.04104ZM18.0797 8.37811C18.1181 8.12653 18.0744 7.86927 17.9551 7.6445L16.1887 8.58252C16.1063 8.42735 16.0761 8.24974 16.1027 8.07606L18.0797 8.37811ZM17.9535 7.64145L17.455 6.71054L15.6918 7.65466L16.1903 8.58557L17.9535 7.64145ZM17.451 7.66205C17.6045 7.38111 17.7275 7.08457 17.8179 6.77748L15.8994 6.21238C15.8492 6.38276 15.781 6.54728 15.6958 6.70315L17.451 7.66205ZM17.1432 7.45361L18.1551 7.15332L17.5862 5.23595L16.5742 5.53624L17.1432 7.45361ZM18.1657 7.15011C18.4064 7.07579 18.6171 6.9266 18.7671 6.72426L17.1605 5.53315C17.264 5.39346 17.4095 5.29047 17.5756 5.23916L18.1657 7.15011ZM18.7671 6.72426C18.9171 6.52192 18.9986 6.27699 18.9998 6.02512L16.9998 6.01581C17.0006 5.84193 17.0569 5.67284 17.1605 5.53315L18.7671 6.72426ZM18.9998 6.02046V4.99646H16.9998V6.02046H18.9998ZM18.9987 5.04385C19.0101 4.80267 18.9475 4.56375 18.8192 4.35917L17.1248 5.42175C17.0362 5.28051 16.993 5.11557 17.0009 4.94908L18.9987 5.04385ZM18.8192 4.35917C18.6909 4.1546 18.5031 3.99419 18.281 3.89946L17.4964 5.73912C17.343 5.67373 17.2134 5.56298 17.1248 5.42175L18.8192 4.35917ZM13.5134 6.15557C13.3845 6.15557 13.2586 6.11736 13.1514 6.04576L12.0403 7.7087C12.4763 8.00006 12.989 8.15557 13.5134 8.15557V6.15557ZM13.1514 6.04576C13.0442 5.97416 12.9607 5.87239 12.9114 5.75332L11.0636 6.51869C11.2643 7.00321 11.6042 7.41733 12.0403 7.7087L13.1514 6.04576ZM12.9114 5.75332C12.8621 5.63425 12.8492 5.50324 12.8743 5.37684L10.9127 4.98666C10.8104 5.50102 10.8629 6.03417 11.0636 6.51869L12.9114 5.75332ZM12.8743 5.37684C12.8995 5.25043 12.9615 5.13433 13.0526 5.0432L11.6384 3.62899C11.2676 3.99982 11.0151 4.47229 10.9127 4.98666L12.8743 5.37684ZM13.0526 5.0432C13.1438 4.95207 13.2599 4.89001 13.3863 4.86487L12.9961 2.9033C12.4817 3.00561 12.0093 3.25815 11.6384 3.62899L13.0526 5.0432ZM13.3863 4.86487C13.5127 4.83972 13.6437 4.85263 13.7628 4.90195L14.5281 3.05419C14.0436 2.85349 13.5105 2.80098 12.9961 2.9033L13.3863 4.86487ZM13.7628 4.90195C13.8818 4.95127 13.9836 5.03478 14.0552 5.14194L15.7181 4.0308C15.4268 3.59475 15.0127 3.25488 14.5281 3.05419L13.7628 4.90195ZM14.0552 5.14194C14.1268 5.2491 14.165 5.37508 14.165 5.50396H16.165C16.165 4.97952 16.0095 4.46686 15.7181 4.0308L14.0552 5.14194ZM14.165 5.50396C14.165 5.67678 14.0964 5.84252 13.9742 5.96472L15.3884 7.37893C15.8857 6.88166 16.165 6.20721 16.165 5.50396H14.165ZM13.9742 5.96472C13.852 6.08692 13.6862 6.15557 13.5134 6.15557V8.15557C14.2167 8.15557 14.8911 7.87621 15.3884 7.37893L13.9742 5.96472Z" fill="white" mask="url(#path-8-outside-1_32_10453)"/>
</svg>
