<svg width="18" height="19" viewBox="0 0 18 19" fill="none" xmlns="http://www.w3.org/2000/svg">
<path d="M7.22255 6.68855H3.66699" stroke="#C4C4C4" stroke-width="1.5" stroke-linecap="round" stroke-linejoin="round"/>
<path d="M12.1109 8.58554C11.5215 8.58554 10.9563 8.3358 10.5395 7.89127C10.1228 7.44674 9.88867 6.84383 9.88867 6.21517C9.88867 5.5865 10.1228 4.98359 10.5395 4.53906C10.9563 4.09453 11.5215 3.8448 12.1109 3.8448C12.7003 3.8448 13.2655 4.09453 13.6822 4.53906C14.099 4.98359 14.3331 5.5865 14.3331 6.21517C14.3331 6.84383 14.099 7.44674 13.6822 7.89127C13.2655 8.3358 12.7003 8.58554 12.1109 8.58554Z" stroke="#C4C4C4" stroke-width="1.5" stroke-linecap="round" stroke-linejoin="round"/>
<path d="M3.66699 3.8448H6.33366" stroke="#C4C4C4" stroke-width="1.5" stroke-linecap="round" stroke-linejoin="round"/>
<path d="M14.3337 15.222L10.3337 12.3776L8.11144 14.2738L3.66699 10.4813" stroke="#C4C4C4" stroke-width="1.5" stroke-linecap="round" stroke-linejoin="round"/>
<path d="M1 17.4978V1.56889C1 1.41801 1.05619 1.27331 1.15621 1.16662C1.25623 1.05994 1.39188 1 1.53333 1H16.4667C16.6081 1 16.7438 1.05994 16.8438 1.16662C16.9438 1.27331 17 1.41801 17 1.56889V17.4978C17 17.6487 16.9438 17.7934 16.8438 17.9C16.7438 18.0067 16.6081 18.0667 16.4667 18.0667H1.53333C1.39188 18.0667 1.25623 18.0067 1.15621 17.9C1.05619 17.7934 1 17.6487 1 17.4978V17.4978Z" stroke="#C4C4C4" stroke-width="1.5"/>
</svg>
