<svg width="18" height="21" viewBox="0 0 18 21" fill="none" xmlns="http://www.w3.org/2000/svg">
<path d="M2.75 9.84162C2.75 11.4086 3.98383 12.6837 5.5 12.6837C7.01617 12.6837 8.25 11.4086 8.25 9.84162C8.25 8.27467 7.01617 6.99951 5.5 6.99951C3.98383 6.99951 2.75 8.27467 2.75 9.84162ZM10.3889 18.9995H11V18.3679C11 15.9307 9.0805 13.9469 6.72222 13.9469H4.27778C1.91889 13.9469 0 15.9307 0 18.3679V18.9995H10.3889Z" fill="#C4C4C4"/>
<path d="M8.25 10.3153C8.25 12.1434 9.70817 13.6311 11.5 13.6311C13.2918 13.6311 14.75 12.1434 14.75 10.3153C14.75 8.4872 13.2918 6.99951 11.5 6.99951C9.70817 6.99951 8.25 8.4872 8.25 10.3153ZM17.2778 20.9995H18V20.2627C18 17.4192 15.7315 15.1048 12.9444 15.1048H10.0556C7.26778 15.1048 5 17.4192 5 20.2627V20.9995H17.2778Z" fill="#B1B1B1"/>
<path d="M11.2364 5.99951L9.47273 4.39363H10.5818V3.10539C10.5818 2.1701 9.65455 1.39363 8.54545 1.39363C7.41818 1.39363 6.49091 2.24069 6.49091 3.29951V4.92304H5L5 3.29951C5 1.46422 6.58182 -0.000488281 8.52727 -0.000488281C10.4364 -0.000488281 12.0545 1.41128 12.0545 3.08775V4.37598H13L11.2364 5.99951Z" fill="#C4C4C4"/>
</svg>
