<svg width="14" height="20" viewBox="0 0 14 20" fill="none" xmlns="http://www.w3.org/2000/svg">
<rect x="0.5" y="4.50049" width="13" height="15" rx="0.5" stroke="#C4C4C4"/>
<path d="M2 9.00049H9V10.0005H2V9.00049Z" fill="#C4C4C4"/>
<path d="M2 12.0005H10V13.0005H2V12.0005Z" fill="#C4C4C4"/>
<path d="M2 15.0005H11V16.0005H2V15.0005Z" fill="#C4C4C4"/>
<path d="M2 4.00049C2 3.4482 2.44772 3.00049 3 3.00049H11C11.5523 3.00049 12 3.4482 12 4.00049V6.00049H2V4.00049Z" fill="#C4C4C4"/>
<path d="M5 2.00049C5 0.895919 5.89543 0.000488281 7 0.000488281C8.10457 0.000488281 9 0.895919 9 2.00049V3.00049H5V2.00049Z" fill="#C4C4C4"/>
<ellipse cx="6.93333" cy="1.93382" rx="0.933333" ry="0.933333" fill="#C4C4C4"/>
</svg>
