<svg width="17" height="21" viewBox="0 0 17 21" fill="none" xmlns="http://www.w3.org/2000/svg">
<rect y="2.48792" width="0.829268" height="17.8293" rx="0.414634" fill="#C4C4C4"/>
<rect x="3.73145" y="2.48792" width="0.829268" height="17.8293" rx="0.414634" fill="#C4C4C4"/>
<rect y="17.4145" width="0.829268" height="4.14634" rx="0.414634" transform="rotate(-90 0 17.4145)" fill="#C4C4C4"/>
<rect y="14.9269" width="0.829268" height="4.14634" rx="0.414634" transform="rotate(-90 0 14.9269)" fill="#C4C4C4"/>
<rect y="12.0245" width="0.829268" height="4.14634" rx="0.414634" transform="rotate(-90 0 12.0245)" fill="#C4C4C4"/>
<rect y="9.53656" width="0.829268" height="4.14634" rx="0.414634" transform="rotate(-90 0 9.53656)" fill="#C4C4C4"/>
<rect y="7.04865" width="0.829268" height="4.14634" rx="0.414634" transform="rotate(-90 0 7.04865)" fill="#C4C4C4"/>
<rect x="12.4395" width="0.829268" height="18.6585" rx="0.414634" fill="#C4C4C4"/>
<rect x="16.1709" width="0.829268" height="18.6585" rx="0.414634" fill="#C4C4C4"/>
<rect x="12.4395" y="14.9269" width="0.829268" height="4.14634" rx="0.414634" transform="rotate(-90 12.4395 14.9269)" fill="#C4C4C4"/>
<rect x="12.4395" y="12.439" width="0.829268" height="4.14634" rx="0.414634" transform="rotate(-90 12.4395 12.439)" fill="#C4C4C4"/>
<rect x="12.4395" y="9.95135" width="0.829268" height="4.14634" rx="0.414634" transform="rotate(-90 12.4395 9.95135)" fill="#C4C4C4"/>
<rect x="12.4395" y="7.04865" width="0.829268" height="4.14634" rx="0.414634" transform="rotate(-90 12.4395 7.04865)" fill="#C4C4C4"/>
<rect x="12.4395" y="4.14624" width="0.829268" height="4.14634" rx="0.414634" transform="rotate(-90 12.4395 4.14624)" fill="#C4C4C4"/>
<path d="M3.86572 17.4193C3.68909 17.4458 3.53144 17.3231 3.51361 17.1454C3.49578 16.9677 3.62452 16.8022 3.80115 16.7758L16.3487 14.8998C16.5254 14.8734 16.683 14.9961 16.7008 15.1738C16.7187 15.3515 16.5899 15.517 16.4133 15.5434L3.86572 17.4193Z" fill="#C4C4C4"/>
<path d="M3.85037 6.64128C3.68221 6.66642 3.53214 6.54966 3.51516 6.38048C3.49819 6.21131 3.62074 6.05379 3.7889 6.02865L16.3672 4.14809C16.5353 4.12294 16.6854 4.23971 16.7024 4.40888C16.7194 4.57805 16.5968 4.73557 16.4286 4.76071L3.85037 6.64128Z" fill="#C4C4C4"/>
<path d="M0.490425 5.9802C0.332293 6.00384 0.191161 5.89404 0.175198 5.73495C0.159235 5.57586 0.274486 5.42773 0.432618 5.40408L12.7059 3.56912C12.864 3.54548 13.0051 3.65528 13.0211 3.81437C13.0371 3.97346 12.9218 4.1216 12.7637 4.14524L0.490425 5.9802Z" fill="#C4C4C4"/>
<path d="M4.30326 7.04929C4.17353 6.95583 4.14912 6.77869 4.24875 6.65363C4.34837 6.52857 4.5343 6.50295 4.66404 6.59641L16.154 14.8737C16.2837 14.9671 16.3082 15.1443 16.2085 15.2693C16.1089 15.3944 15.923 15.42 15.7932 15.3265L4.30326 7.04929Z" fill="#C4C4C4"/>
<path d="M15.9519 4.60551C16.0648 4.49226 16.2435 4.49628 16.3512 4.6145C16.4588 4.73271 16.4546 4.92035 16.3418 5.0336L4.47954 16.9364C4.36668 17.0496 4.18791 17.0456 4.08025 16.9274C3.97259 16.8092 3.97681 16.6216 4.08968 16.5083L15.9519 4.60551Z" fill="#C4C4C4"/>
</svg>
