<svg width="70" height="90" viewBox="0 0 70 90" fill="none" xmlns="http://www.w3.org/2000/svg">
<path d="M35 0C25.7208 0.0109469 16.8248 3.70195 10.2634 10.2633C3.70198 16.8247 0.0109842 25.7208 3.72364e-05 35C-0.0110765 42.5829 2.46588 49.9602 7.05094 55.9999C7.05094 55.9999 8.00548 57.2568 8.16139 57.4381L35 89.0908L61.8513 57.4222C61.9913 57.2536 62.9491 55.9999 62.9491 55.9999L62.9522 55.9904C67.535 49.9533 70.0108 42.5795 70 35C69.989 25.7208 66.298 16.8247 59.7366 10.2633C53.1752 3.70195 44.2792 0.0109469 35 0ZM38.1818 50.909H31.8182V44.5454H38.1818V50.909ZM38.1818 38.1818H31.8182V31.8181H38.1818V38.1818ZM50.9091 50.909H44.5454V25.4545H25.4546V50.909H19.0909V25.4545C19.0926 23.7673 19.7636 22.1497 20.9567 20.9566C22.1497 19.7636 23.7673 19.0926 25.4546 19.0909H44.5454C46.2327 19.0926 47.8503 19.7636 49.0434 20.9566C50.2364 22.1497 50.9074 23.7673 50.9091 25.4545V50.909Z" fill="#D8D8D8"/>
</svg>
