<svg width="14" height="18" viewBox="0 0 14 18" fill="none" xmlns="http://www.w3.org/2000/svg">
<path d="M7 0C5.14416 0.00218939 3.36495 0.74039 2.05268 2.05267C0.740397 3.36495 0.00219684 5.14415 7.44728e-06 6.99999C-0.0022153 8.51659 0.493176 9.99203 1.41019 11.2C1.41019 11.2 1.6011 11.4514 1.63228 11.4876L7 17.8182L12.3703 11.4844C12.3983 11.4507 12.5898 11.2 12.5898 11.2L12.5904 11.1981C13.507 9.99065 14.0022 8.51589 14 6.99999C13.9978 5.14415 13.2596 3.36495 11.9473 2.05267C10.635 0.74039 8.85584 0.00218939 7 0ZM7.63636 10.1818H6.36364V8.90908H7.63636V10.1818ZM7.63636 7.63636H6.36364V6.36363H7.63636V7.63636ZM10.1818 10.1818H8.90909V5.0909H5.09091V10.1818H3.81819V5.0909C3.81852 4.75346 3.95272 4.42993 4.19133 4.19132C4.42994 3.95271 4.75347 3.81851 5.09091 3.81818H8.90909C9.24653 3.81851 9.57006 3.95271 9.80867 4.19132C10.0473 4.42993 10.1815 4.75346 10.1818 5.0909V10.1818Z" fill="#F88923"/>
</svg>
