<svg width="14" height="14" viewBox="0 0 14 14" fill="none" xmlns="http://www.w3.org/2000/svg">
<g clip-path="url(#clip0_3924_2090)">
<path d="M1.29077 13.5625C0.568897 13.5625 0.240772 13.0375 0.568897 12.4031L6.40952 0.918759C6.73765 0.284384 7.26265 0.284384 7.59077 0.918759L13.4314 12.4031C13.7595 13.0375 13.4314 13.5625 12.7095 13.5625H1.29077Z" fill="#F8CC23"/>
<path d="M6.08039 5.1625L6.69289 9.20937C6.75851 9.60312 7.26164 9.60312 7.32726 9.20937L7.91789 5.1625C8.02726 3.5875 5.97101 3.5875 6.08039 5.1625Z" fill="#231F20"/>
<path d="M6.99883 11.7687C7.50624 11.7687 7.91758 11.3574 7.91758 10.85C7.91758 10.3426 7.50624 9.93124 6.99883 9.93124C6.49142 9.93124 6.08008 10.3426 6.08008 10.85C6.08008 11.3574 6.49142 11.7687 6.99883 11.7687Z" fill="#231F20"/>
</g>
<defs>
<clipPath id="clip0_3924_2090">
<rect width="14" height="14" fill="white"/>
</clipPath>
</defs>
</svg>
