<svg width="38" height="38" viewBox="0 0 38 38" fill="none" xmlns="http://www.w3.org/2000/svg">
<circle cx="19" cy="19" r="17" fill="#4AB85B" stroke="#F4F4F4" stroke-width="3"/>
<g clip-path="url(#clip0_364_962)">
<path d="M19 16.6C17.6992 16.6 16.6 17.6992 16.6 19C16.6 20.3008 17.6992 21.4 19 21.4C20.3008 21.4 21.4 20.3008 21.4 19C21.4 17.6992 20.3008 16.6 19 16.6Z" fill="white"/>
<path d="M25.4 13.4H23.3312L21.1656 11.2344C21.0914 11.16 21.0033 11.1009 20.9062 11.0607C20.8091 11.0205 20.7051 10.9998 20.6 11H17.4C17.2949 10.9998 17.1909 11.0205 17.0938 11.0607C16.9967 11.1009 16.9086 11.16 16.8344 11.2344L14.6688 13.4H12.6C11.7176 13.4 11 14.1176 11 15V23.8C11 24.6824 11.7176 25.4 12.6 25.4H25.4C26.2824 25.4 27 24.6824 27 23.8V15C27 14.1176 26.2824 13.4 25.4 13.4ZM19 23C16.832 23 15 21.168 15 19C15 16.832 16.832 15 19 15C21.168 15 23 16.832 23 19C23 21.168 21.168 23 19 23Z" fill="white"/>
</g>
<defs>
<clipPath id="clip0_364_962">
<rect width="16" height="15" fill="white" transform="translate(11 11)"/>
</clipPath>
</defs>
</svg>
