<svg width="126" height="118" viewBox="0 0 126 118" fill="none" xmlns="http://www.w3.org/2000/svg">
<path d="M124.674 54.5876L92.1322 39.2167C91.8181 39.0701 91.4751 38.9961 91.1286 39.0002C90.7821 39.0042 90.4409 39.0862 90.1304 39.24C89.8198 39.3938 89.5479 39.6155 89.3347 39.8888C89.1215 40.162 88.9726 40.4797 88.8988 40.8183C88.8913 40.8434 86.2881 52.9433 82.4221 65.0056C81.1042 69.1401 79.6281 73.227 78.0867 76.8168L82.2665 78.7899C87.2872 67.1368 91.2636 51.0505 92.7598 44.6164L121.044 57.959C120.175 61.7572 117.949 71.0706 114.969 80.3689C113.043 86.3938 110.789 92.4111 108.48 96.7666C106.245 101.26 103.564 103.469 102.964 103.173C99.3997 103.248 96.8943 100.005 95.2074 95.8478C94.4978 94.0188 93.946 92.1326 93.5581 90.2095C93.2367 88.6581 93.1388 87.6841 93.1313 87.6841C93.0913 87.2917 92.9499 86.9164 92.7211 86.5951C92.4922 86.2738 92.1837 86.0176 91.8259 85.8516L59.2917 70.4882C58.921 70.3133 58.5106 70.2398 58.1023 70.275C57.694 70.3103 57.3023 70.4531 56.9671 70.689C56.6339 70.927 56.3699 71.2494 56.2023 71.623C56.0347 71.9966 55.9694 72.4081 56.0132 72.8153C56.0333 72.9308 56.5027 77.4594 58.3905 82.1965C59.7009 85.5101 61.9226 89.2707 65.535 91.171L98.0591 106.559L98.0742 106.529C99.485 107.27 101.087 107.752 102.962 107.774C107.473 107.481 109.933 103.587 112.546 98.9255C120.077 84.6416 125.901 57.2536 125.947 57.1532C126.058 56.6461 125.994 56.1162 125.764 55.6508C125.534 55.1853 125.152 54.8121 124.681 54.5926L124.674 54.5876Z" fill="#D8D8D8"/>
<path d="M50.7877 59.436L69.394 41.6979C69.5723 41.5263 69.7098 41.3167 69.7962 41.0848C69.8825 40.8528 69.9156 40.6043 69.8928 40.3578C69.8701 40.1113 69.7922 39.8731 69.6649 39.6608C69.5376 39.4485 69.3642 39.2676 69.1574 39.1315C69.1426 39.12 61.7474 34.2758 54.7018 28.5997C52.285 26.6589 49.9405 24.6249 47.9441 22.6752L45.5551 24.9538C52.0312 31.2944 61.7304 38.0782 65.634 40.7286L49.4735 56.1504C47.1654 54.5955 41.5306 50.7183 36.0993 46.343C32.5787 43.5115 29.1477 40.4629 26.8384 37.8045C24.4177 35.1607 23.6344 32.8062 23.986 32.4825C24.8518 30.0874 27.6572 29.2511 30.8613 29.1951C32.2625 29.1922 33.6614 29.3091 35.0428 29.5447C36.1593 29.7293 36.8336 29.9143 36.8355 29.9093C37.1073 29.9835 37.3938 29.9857 37.6667 29.9157C37.9396 29.8458 38.1897 29.706 38.3923 29.5102L56.9916 11.7753C57.2034 11.5732 57.3579 11.3185 57.4393 11.0373C57.5207 10.7561 57.5262 10.4584 57.4551 10.1744C57.3821 9.89115 57.2351 9.6324 57.0292 9.42467C56.8233 9.21694 56.5658 9.0677 56.2832 8.99225C56.2011 8.97596 53.0622 8.1251 49.4201 8.16598C46.8749 8.18781 43.7978 8.70214 41.603 10.6213L22.9895 28.3431L23.0057 28.3609C22.1496 29.1109 21.4168 30.0544 20.9199 31.2984C19.9564 34.3804 21.9192 37.0205 24.3545 39.96C31.939 48.6497 48.6954 59.569 48.7508 59.6249C49.0601 59.8295 49.4298 59.9226 49.7991 59.889C50.1684 59.8553 50.5152 59.6968 50.7824 59.4397L50.7877 59.436Z" fill="#D8D8D8"/>
<path d="M75.1419 16.4605L80.2906 30.9998C80.3408 31.1395 80.4219 31.2662 80.5277 31.3704C80.6335 31.4746 80.7615 31.5536 80.902 31.6016C81.0426 31.6497 81.1921 31.6654 81.3396 31.6478C81.4871 31.6302 81.6287 31.5796 81.7539 31.4998C81.7638 31.4945 86.2304 28.6334 91.0667 26.1678C92.7223 25.3205 94.4111 24.5357 95.9684 23.9208L95.3067 22.0536C90.2463 24.0445 84.1525 27.6913 81.7437 29.1787L77.2633 16.5469C78.6809 15.6644 82.1862 13.53 85.9142 11.6293C88.3282 10.3961 90.8392 9.26516 92.8613 8.65278C94.9027 7.9758 96.3841 8.12442 96.4751 8.39635C97.5742 9.45796 97.3439 11.1992 96.5887 12.9674C96.2466 13.7354 95.8394 14.4727 95.3715 15.1713C94.9966 15.7374 94.7299 16.0612 94.7322 16.0635C94.6249 16.1942 94.5534 16.3505 94.5247 16.5171C94.4961 16.6837 94.5113 16.8549 94.5688 17.0139L99.7175 31.5486C99.7762 31.7141 99.8778 31.8612 100.012 31.9747C100.146 32.0883 100.307 32.1643 100.48 32.1951C100.653 32.2246 100.831 32.2075 100.995 32.1457C101.16 32.0839 101.305 31.9795 101.415 31.8433C101.444 31.8023 102.68 30.2923 103.551 28.288C104.163 26.889 104.637 25.0779 104.124 23.4053L98.9861 8.86609L98.9724 8.8706C98.7717 8.21787 98.4348 7.58517 97.8756 7.00793C96.4243 5.72438 94.4972 6.1515 92.2902 6.76394C85.6716 8.7854 75.5823 15.2822 75.5381 15.2988C75.3502 15.418 75.2085 15.5976 75.1363 15.8081C75.0642 16.0185 75.0659 16.2473 75.1411 16.4567L75.1419 16.4605Z" fill="#D8D8D8"/>
<g clip-path="url(#clip0_5963_2337)">
<path d="M15.2475 65.8378C15.1092 66.0622 14.9568 66.2604 14.8259 66.5256L14.6254 66.9101C14.5618 67.0341 14.4793 67.1882 14.4431 67.2841L14.2972 67.6122L14.2246 67.779L14.172 67.9018L14.1604 67.9226C14.1767 67.8707 14.1297 68.0179 14.129 68.0124C13.7344 69.0808 13.5007 70.2669 13.4587 71.5006C13.4167 72.7343 13.6049 74.0111 13.9833 75.2744C14.3549 76.5024 14.9308 77.718 15.7224 78.8505C15.6587 79.1192 15.6011 79.3927 15.5575 79.6674C15.5253 79.8712 15.5073 80.1263 15.4886 80.3509C15.4817 80.4601 15.4675 80.6035 15.4678 80.6785L15.4658 81.1458L15.4642 81.2044L15.4622 81.3325L15.4635 81.3685L15.4695 81.518C15.4812 81.7168 15.4899 81.9132 15.507 82.1114C15.662 83.6812 16.1169 85.1498 16.7437 86.4458C17.9859 89.0585 19.8656 91.0004 21.8078 92.493C22.0543 92.6788 22.2929 92.8683 22.5382 93.0432L23.2897 93.5353C23.5368 93.7016 23.7825 93.8569 24.0429 93.9938C24.296 94.1399 24.5478 94.2751 24.8021 94.4072C25.3148 94.6598 25.8299 94.8843 26.3303 95.1021C26.8464 95.2876 27.3401 95.4951 27.8415 95.6489C28.8394 95.9626 29.8054 96.216 30.7363 96.3567C31.6684 96.5083 32.5575 96.5759 33.3891 96.6029C35.0548 96.6787 36.4919 96.4583 37.6423 96.2346C37.927 96.1714 38.1983 96.1125 38.4531 96.0554C38.7079 95.9984 38.9449 95.9073 39.163 95.8461C39.6006 95.7097 39.9656 95.5956 40.2433 95.472C40.8086 95.2376 41.1083 95.1114 41.1083 95.1114L41.0396 94.8274C41.0396 94.8274 40.7257 94.9023 40.1381 95.0392C39.8443 95.1202 39.4809 95.1758 39.0547 95.2413C38.8413 95.2714 38.6133 95.3197 38.3657 95.3426C38.1181 95.3654 37.8541 95.3902 37.576 95.4137C36.4617 95.4915 35.0971 95.5201 33.5541 95.3023C32.0123 95.0954 30.2942 94.6836 28.5212 93.9639C26.7465 93.2528 24.9345 92.1928 23.2756 90.7705C21.6174 89.3538 20.0926 87.5491 19.1265 85.3801C18.6438 84.2984 18.3285 83.1251 18.2431 81.9199C18.2315 81.7461 18.2278 81.5686 18.2272 81.3935L18.4614 81.5696L18.5257 81.6206C18.5709 81.6516 18.4535 81.5733 18.637 81.694L19.0057 81.927C20.3225 82.7185 21.8644 83.3145 23.6777 83.3679C24.131 83.3687 24.5933 83.3518 25.0646 83.2672C25.2811 83.2396 25.581 83.1635 25.8503 83.0881L26.0064 83.0424L26.2318 82.9721L26.2879 82.9517L26.4262 82.897L26.4713 82.8779C27.4417 82.4797 28.2986 81.8475 28.9654 81.0377C29.6147 80.2514 30.1172 79.3236 30.3469 78.2241C30.4683 77.6819 30.5058 77.0882 30.4475 76.4832C30.4299 76.3296 30.4099 76.1789 30.3843 76.029C30.3538 75.8601 30.297 75.6553 30.2427 75.4725L30.155 75.1934L30.1039 75.063L30.0116 74.8401C30.0258 74.8662 29.8665 74.5203 29.9194 74.6421L29.8912 74.5897L29.8377 74.4874L29.723 74.2865C29.6493 74.1532 29.5622 74.0242 29.4702 73.9013C29.2936 73.6463 29.0958 73.4243 28.887 73.2036C28.4609 72.7854 27.993 72.4387 27.5095 72.1744C26.5377 71.652 25.5339 71.4085 24.546 71.3522C24.2988 71.3305 24.0506 71.3478 23.8035 71.3511C23.5529 71.3716 23.3266 71.3864 23.0157 71.4387C22.6663 71.4955 22.567 71.5263 22.4018 71.5647L22.2774 71.5957L22.2372 71.6086L22.1513 71.6352L21.6449 71.8017C20.7591 72.1257 19.9451 72.5916 19.2357 73.1456C18.2021 73.9759 17.3906 74.9726 16.7887 76.0508C16.5087 75.5491 16.2738 75.0284 16.0859 74.505C15.3515 72.4651 15.314 70.3203 15.8432 68.5108C16.1212 67.5893 16.5198 66.7984 16.9894 66.069C17.4566 65.3426 17.9967 64.719 18.5683 64.2003C19.692 63.1372 20.9086 62.4973 21.9388 62.0983C22.9782 61.7066 23.8464 61.5681 24.4349 61.5117C24.7288 61.4808 24.9576 61.4879 25.1119 61.4758L25.3443 61.4658L25.3494 61.1705C25.3494 61.1705 25.2676 61.1604 25.1095 61.1396C24.9521 61.1243 24.7103 61.077 24.3973 61.0629C23.7719 61.0401 22.8257 61.0318 21.653 61.3276C20.4913 61.6221 19.062 62.153 17.6901 63.2334C16.991 63.7556 16.3064 64.4041 15.6881 65.1951C15.5382 65.4153 15.3803 65.6141 15.2475 65.8378ZM21.0227 75.4429C21.9889 74.7037 23.2128 74.2242 24.4143 74.3004C25.0177 74.3258 25.6192 74.4792 26.1454 74.7525C26.4088 74.8919 26.6462 75.0704 26.8555 75.2716C27.0587 75.4679 27.2366 75.7338 27.3539 75.9567C27.8867 77.0383 27.5411 78.3402 26.786 79.2469C26.4167 79.7119 25.9269 80.0711 25.3976 80.3042C25.2837 80.3534 25.107 80.4126 24.9729 80.4558C24.8352 80.491 24.7011 80.5342 24.5536 80.5567C24.2658 80.6175 23.9676 80.635 23.6711 80.644C22.4839 80.6439 21.3168 80.2607 20.2996 79.6823C19.742 79.3542 19.2337 78.9705 18.7655 78.5487C18.7891 78.4877 18.8096 78.4241 18.8387 78.3624C19.3063 77.2273 20.0554 76.1961 21.0227 75.4429Z" fill="#D8D8D8"/>
</g>
<ellipse cx="62" cy="114" rx="52" ry="4" fill="#EBEBEB"/>
<defs>
<clipPath id="clip0_5963_2337">
<rect width="50" height="50" fill="white" transform="translate(39.1537 112.25) rotate(-141.543)"/>
</clipPath>
</defs>
</svg>
