<svg width="13" height="12" viewBox="0 0 13 12" fill="none" xmlns="http://www.w3.org/2000/svg">
<path d="M6.5 0C3.188 0 0.5 2.688 0.5 6C0.5 9.312 3.188 12 6.5 12H9.5V10.8H6.5C3.896 10.8 1.7 8.604 1.7 6C1.7 3.396 3.896 1.2 6.5 1.2C9.104 1.2 11.3 3.396 11.3 6V6.858C11.3 7.332 10.874 7.8 10.4 7.8C9.926 7.8 9.5 7.332 9.5 6.858V6C9.5 4.344 8.156 3 6.5 3C4.844 3 3.5 4.344 3.5 6C3.5 7.656 4.844 9 6.5 9C7.328 9 8.084 8.664 8.624 8.118C9.014 8.652 9.686 9 10.4 9C11.582 9 12.5 8.04 12.5 6.858V6C12.5 2.688 9.812 0 6.5 0ZM6.5 7.8C5.504 7.8 4.7 6.996 4.7 6C4.7 5.004 5.504 4.2 6.5 4.2C7.496 4.2 8.3 5.004 8.3 6C8.3 6.996 7.496 7.8 6.5 7.8Z" fill="#FF772A"/>
</svg>
