<svg width="10" height="10" viewBox="0 0 10 10" fill="none" xmlns="http://www.w3.org/2000/svg">
<path d="M6.66709 7.10407L7.52819 6.24297C7.64417 6.12843 7.79091 6.05002 7.95059 6.01727C8.11027 5.98451 8.27602 5.99882 8.42773 6.05845L9.47719 6.47747C9.6305 6.5397 9.76196 6.64591 9.85499 6.78273C9.94803 6.91955 9.99849 7.08085 10 7.2463V9.1684C9.99911 9.28095 9.97545 9.39215 9.93045 9.49532C9.88544 9.59848 9.82003 9.69147 9.73814 9.76869C9.65625 9.84591 9.55959 9.90576 9.45396 9.94463C9.34834 9.98351 9.23593 10.0006 9.12353 9.99489C1.7696 9.53744 0.285745 3.30986 0.00511948 0.926464C-0.00790734 0.809423 0.00399492 0.690949 0.0400432 0.578838C0.0760915 0.466727 0.135469 0.363519 0.214269 0.276004C0.293069 0.188488 0.389506 0.118649 0.497236 0.0710808C0.604965 0.0235124 0.721546 -0.000707007 0.839308 1.57108e-05H2.69605C2.86174 0.000506147 3.02349 0.0505542 3.1605 0.143723C3.29751 0.236891 3.40352 0.368919 3.46489 0.522825L3.8839 1.57229C3.94551 1.72339 3.96122 1.88929 3.92909 2.04928C3.89696 2.20926 3.8184 2.35623 3.70323 2.47183L2.84213 3.33292C2.84213 3.33292 3.33803 6.6889 6.66709 7.10407Z" fill="#37B34A"/>
</svg>
