<svg width="50" height="50" viewBox="0 0 50 50" fill="none" xmlns="http://www.w3.org/2000/svg">
<path d="M24.3188 2.54087L24.2341 2.54668L24.15 2.55823C22.6537 2.76363 21.2824 3.5039 20.2897 4.64214L21.8704 6.02073L20.2897 4.64214C19.297 5.78038 18.7501 7.23958 18.75 8.74989V8.75V18.746L8.749 18.75L8.66382 18.75L8.57883 18.7559L8.06883 18.7909L7.98412 18.7967L7.9 18.8082C6.40372 19.0136 5.03243 19.7539 4.03973 20.8921L5.92384 22.5353L4.03972 20.8921C3.04702 22.0304 2.50006 23.4896 2.5 24.9999L2.5 25.0856L2.50587 25.1712L2.54087 25.6812L2.54668 25.7659L2.55823 25.85C2.76363 27.3463 3.5039 28.7176 4.64214 29.7103L6.26996 27.8438L4.64214 29.7103C5.78038 30.703 7.23958 31.2499 8.74989 31.25H8.751L18.75 31.246V41.25V41.3357L18.7559 41.4212L18.7909 41.9312L18.7967 42.0159L18.8082 42.1C19.0136 43.5963 19.7539 44.9676 20.8921 45.9603C22.0304 46.953 23.4896 47.4999 24.9999 47.5L25.0856 47.5L25.1712 47.4941L25.6812 47.4591L25.7659 47.4533L25.85 47.4418C27.3463 47.2364 28.7176 46.4961 29.7103 45.3579L27.8262 43.7147L29.7103 45.3579C30.703 44.2196 31.2499 42.7604 31.25 41.2501V41.25V31.246L41.249 31.25L41.3352 31.25L41.4212 31.2441L41.9312 31.2091L42.0159 31.2033L42.1 31.1918C43.5963 30.9864 44.9676 30.2461 45.9603 29.1079C46.953 27.9696 47.4999 26.5104 47.5 25.0001L47.5 24.9144L47.4941 24.8288L47.4591 24.3188L47.4533 24.2341L47.4418 24.15C47.2364 22.6537 46.4961 21.2824 45.3579 20.2897L43.7639 22.1173L45.3579 20.2897C44.2198 19.2972 42.761 18.7503 41.251 18.75C41.2507 18.75 41.2504 18.75 41.2501 18.75L31.25 18.746V8.75V8.66432L31.2441 8.57883L31.2091 8.06883L31.2033 7.98412L31.1918 7.9C30.9864 6.40372 30.2461 5.03243 29.1079 4.03973C27.9696 3.04702 26.5104 2.50006 25.0001 2.5L24.9144 2.5L24.8288 2.50587L24.3188 2.54087Z" fill="#D8D8D8" stroke="#F2F2F2" stroke-width="5"/>
</svg>
